<?xml version="1.0" encoding="UTF-8" standalone="no" ?>
<!DOCTYPE svg PUBLIC "-//W3C//DTD SVG 1.1//EN" "http://www.w3.org/Graphics/SVG/1.1/DTD/svg11.dtd">
<svg xmlns="http://www.w3.org/2000/svg" xmlns:xlink="http://www.w3.org/1999/xlink" version="1.1" width="500"
     height="500" viewBox="0 0 500 500" xml:space="preserve">
<desc>Created with Fabric.js 4.6.0</desc>
    <defs>
</defs>
    <g transform="matrix(4.08 0 0 4.08 250 252.33)" id="6y_Y44eVTZa6DeXumrYZh">
<path style="stroke: rgb(255,255,255); stroke-width: 0; stroke-dasharray: none; stroke-linecap: butt; stroke-dashoffset: 0; stroke-linejoin: miter; stroke-miterlimit: 4; fill: rgb(255,0,189); fill-rule: nonzero; opacity: 1;"
      vector-effect="non-scaling-stroke" transform=" translate(0, 0)"
      d="M -55.06003 -55.06003 L 55.06004 -55.06003 L 55.06004 55.06004 L -55.06003 55.06004 z" stroke-linecap="round"/>
</g>
    <g transform="matrix(5.69 0 0 5.69 231.44 271.28)" id="uiGpXVI9U-wF21jTl-iw3">
<path style="stroke: none; stroke-width: 1; stroke-dasharray: none; stroke-linecap: butt; stroke-dashoffset: 0; stroke-linejoin: miter; stroke-miterlimit: 4; fill: rgb(179,181,179); fill-rule: nonzero; opacity: 1;"
      vector-effect="non-scaling-stroke" transform=" translate(-40, -40)"
      d="M 74 27.9 C 73.8 24.5 72.1 -3.700000000000003 37 0.3999999999999986 C 24.1 2.2999999999999985 15.399999999999999 11.499999999999998 14.2 24.4 C 14.1 25.4 14 26.7 14 28 C 14 29.1 13.9 29.7 13.7 30.2 C 13.499999999999998 30.7 6.4 44.7 6.4 44.7 C 6.2 45 5.8 45.6 6 46.5 C 6.2 47.4 6.8 48.2 8 48.8 C 8.5 49.099999999999994 9 49.3 9.5 49.5 C 10.5 49.9 11.4 50.3 12 51.2 C 12.8 52.300000000000004 12.8 53.5 12.8 54.900000000000006 C 12.8 55.300000000000004 12.600000000000001 59.7 12.600000000000001 59.7 C 12.400000000000002 62.300000000000004 12.3 65 13.600000000000001 66.9 C 14.900000000000002 68.80000000000001 17.3 69 19.6 69 C 19.900000000000002 69 26.1 69 26.1 69 C 28.8 69 29.5 70.7 29.6 72.3 C 29.6 72.3 29.6 79.39999999999999 29.6 79.3 C 29.6 79.7 29.900000000000002 80 30.3 80 L 61.2 80 C 61.6 80 61.900000000000006 79.7 61.900000000000006 79.3 L 61.900000000000006 59.2 C 61.900000000000006 58.7 62.10000000000001 58.2 62.60000000000001 57.7 C 74.9 45 74.1 31.3 74 27.9 z"
      stroke-linecap="round"/>
</g>
    <g transform="matrix(1 0 0 1 255.6 201.71)" id="Qa522K8Rar1hV4oHG5Cox">
<path style="stroke: rgb(255,255,255); stroke-width: 0; stroke-dasharray: none; stroke-linecap: butt; stroke-dashoffset: 0; stroke-linejoin: miter; stroke-miterlimit: 4; fill: rgb(255,255,255); fill-rule: nonzero; opacity: 1;"
      vector-effect="non-scaling-stroke" transform=" translate(-109.77, -109.77)"
      d="M 109.76563 0 C 170.35626 0 219.53126 49.175 219.53126 109.76563 C 219.53126 170.35626 170.35626000000002 219.53126 109.76563 219.53126 C 49.175000000000004 219.53126 0 170.35626000000002 0 109.76563 C 0 49.175000000000004 49.175 0 109.76563 0 z"
      stroke-linecap="round"/>
</g>
    <g transform="matrix(1.99 0 0 1.99 255.6 201.71)" id="3nffHTcXYn6vNmKTTmVVy">
<path style="stroke: none; stroke-width: 1; stroke-dasharray: none; stroke-linecap: butt; stroke-dashoffset: 0; stroke-linejoin: miter; stroke-miterlimit: 4; fill: rgb(255,0,14); fill-rule: nonzero; opacity: 1;"
      vector-effect="non-scaling-stroke" transform=" translate(-40, -40)"
      d="M 80 52.5 L 52.5 52.5 L 52.5 80 L 27.5 80 L 27.5 52.5 L 0 52.5 L 0 27.5 L 27.5 27.5 L 27.5 0 L 52.5 0 L 52.5 27.5 L 80 27.5 L 80 52.5 z"
      stroke-linecap="round"/>
</g>
    <g transform="matrix(1.96 0 0 1.96 254.88 193.6)" id="09EQFkfRF9sW17XECxCni">
<g style="" vector-effect="non-scaling-stroke">
		<g transform="matrix(1 0 0 1 0 9.75)" id="zLZ7Qj1ASAt81d7dqxRIn">
<path style="stroke: none; stroke-width: 1; stroke-dasharray: none; stroke-linecap: butt; stroke-dashoffset: 0; stroke-linejoin: miter; stroke-miterlimit: 4; fill: rgb(179,181,179); fill-rule: nonzero; opacity: 1;"
      vector-effect="non-scaling-stroke" transform=" translate(-40, -49.75)"
      d="M 40 31.2 C 23.7 31.2 11 47.8 10.399999999999999 48.5 C 9.799999999999999 49.3 9.799999999999999 50.3 10.399999999999999 51.1 C 11 51.7 23.7 68.3 40 68.3 C 56.3 68.3 69 51.699999999999996 69.6 51 C 70.19999999999999 50.2 70.19999999999999 49.2 69.6 48.4 C 69 47.7 56.3 31.2 40 31.2 z"
      stroke-linecap="round"/>
</g>
    <g transform="matrix(1 0 0 1 0 9.7)" id="V6vB-8N7unaPl9QxiIQZF">
<path style="stroke: none; stroke-width: 1; stroke-dasharray: none; stroke-linecap: butt; stroke-dashoffset: 0; stroke-linejoin: miter; stroke-miterlimit: 4; fill: rgb(255,255,255); fill-rule: nonzero; opacity: 1;"
      vector-effect="non-scaling-stroke" transform=" translate(-40, -49.7)"
      d="M 40 35.8 C 28.8 35.8 19 46 15.8 49.699999999999996 C 19 53.4 28.8 63.599999999999994 40 63.599999999999994 C 51.2 63.599999999999994 61 53.39999999999999 64.2 49.699999999999996 C 61 46.1 51.2 35.8 40 35.8 z"
      stroke-linecap="round"/>
</g>
    <g transform="matrix(1 0 0 1 0 9.65)" id="Lso2kSTY50TMQP1L5FjyW">
<path style="stroke: none; stroke-width: 1; stroke-dasharray: none; stroke-linecap: butt; stroke-dashoffset: 0; stroke-linejoin: miter; stroke-miterlimit: 4; fill: rgb(179,181,179); fill-rule: nonzero; opacity: 1;"
      vector-effect="non-scaling-stroke" transform=" translate(-40, -49.65)"
      d="M 51.7 49.7 C 51.7 56.2 46.5 61.400000000000006 40 61.400000000000006 C 33.5 61.400000000000006 28.3 56.2 28.3 49.7 C 28.3 49.5 28.3 49.400000000000006 28.3 49.2 C 29.400000000000002 50.300000000000004 30.8 51 32.5 51 C 35.7 51 38.3 48.4 38.3 45.2 C 38.3 42.5 36.5 40.300000000000004 34 39.6 C 35.7 38.6 37.8 37.9 40 37.9 C 46.5 38 51.7 43.3 51.7 49.7 z"
      stroke-linecap="round"/>
</g>
    <g transform="matrix(1 0 0 1 0 -14.15)" id="DK5ddGhxnM9a8IgYfcjnD">
<path style="stroke: none; stroke-width: 1; stroke-dasharray: none; stroke-linecap: butt; stroke-dashoffset: 0; stroke-linejoin: miter; stroke-miterlimit: 4; fill: rgb(179,181,179); fill-rule: nonzero; opacity: 1;"
      vector-effect="non-scaling-stroke" transform=" translate(-40, -25.85)"
      d="M 79.5 30.1 C 80.4 31.200000000000003 80.1 32.9 79 33.7 L 71.1 39.5 C 70.6 39.8 70.1 40 69.6 40 C 68.8 40 68 39.6 67.5 39 C 66.6 37.9 66.9 36.2 68 35.4 L 75.9 29.599999999999998 C 77 28.7 78.6 28.9 79.5 30.1 z M 55 29 C 55.4 29.2 55.8 29.3 56.2 29.3 C 57.1 29.3 58 28.8 58.5 27.900000000000002 L 63.1 19.300000000000004 C 63.800000000000004 18.000000000000004 63.300000000000004 16.500000000000004 62 15.800000000000004 C 60.7 15.100000000000005 59.2 15.600000000000005 58.5 16.900000000000006 L 53.9 25.500000000000007 C 53.3 26.8 53.7 28.3 55 29 z M 40.3 26.7 C 41.699999999999996 26.7 42.9 25.5 42.9 24.099999999999998 L 42.9 14.299999999999997 C 42.9 12.899999999999997 41.699999999999996 11.699999999999998 40.3 11.699999999999998 C 38.9 11.699999999999998 37.699999999999996 12.899999999999997 37.699999999999996 14.299999999999997 L 37.699999999999996 24.099999999999998 C 37.7 25.5 38.9 26.7 40.3 26.7 z M 21.5 27.9 C 22 28.799999999999997 22.9 29.299999999999997 23.8 29.299999999999997 C 24.2 29.299999999999997 24.6 29.199999999999996 25 28.999999999999996 C 26.3 28.299999999999997 26.7 26.799999999999997 26.1 25.499999999999996 L 21.5 16.9 C 20.8 15.599999999999998 19.3 15.2 18 15.799999999999999 C 16.7 16.5 16.3 18 16.9 19.299999999999997 L 21.5 27.9 z M 12.5 39 C 13.4 37.9 13.1 36.2 12 35.4 L 4.1 29.599999999999998 C 2.9999999999999996 28.7 1.2999999999999998 28.999999999999996 0.49999999999999956 30.099999999999998 C -0.40000000000000047 31.2 -0.10000000000000042 32.9 0.9999999999999996 33.699999999999996 L 8.9 39.49999999999999 C 9.4 39.79999999999999 9.9 39.99999999999999 10.4 39.99999999999999 C 11.2 40 12 39.7 12.5 39 z"
      stroke-linecap="round"/>
</g>
</g>
</g>
</svg>